<svg xmlns="http://www.w3.org/2000/svg" viewBox="0 0 24 24"><path d="M7.013 3.94q-2.004 0-3.607.958-1.581.935-2.493 2.738Q0 9.44 0 12t.78 4.364 2.27 2.76q1.515.935 3.674.935 1.446.001 2.56-.334 1.112-.356 1.736-.757l-.757-2.404q-.466.289-1.269.557-.8.267-1.981.267-1.357 0-2.226-.646-.869-.645-1.27-1.87-.4-1.224-.4-2.961 0-2.026.556-3.184.579-1.157 1.47-1.625a3.75 3.75 0 0 1 1.825-.49q1.025 0 1.848.267.825.245 1.38.624l.802-2.45q-.222-.155-.757-.4-.511-.267-1.336-.49-.801-.222-1.892-.222m5.9.357v15.428h3.072v-7.057q.624.556 1.291 1.403.69.824 1.336 1.803.646.98 1.136 1.981.511 1.002.779 1.87H24a16 16 0 0 0-1.336-3.005 23 23 0 0 0-1.892-2.939q-1.024-1.402-2.07-2.382a31 31 0 0 0 1.958-2.494 42 42 0 0 0 1.626-2.515q.735-1.203 1.18-2.093h-3.473a18 18 0 0 1-1.047 2.026q-.645 1.113-1.425 2.27a34 34 0 0 1-1.536 2.116V4.297Z"/></svg>