<svg xmlns="http://www.w3.org/2000/svg" width="512" height="240" viewBox="0 0 135.467 63.5"><path d="M106.236.445q-2.737 0-5.917.176-3.09.177-6.181.53-3.09.353-5.829.971V61.29q3.269.705 6.447 1.059 3.267.441 6.446.53 3.18.177 6.27.176 13.953 0 20.93-4.768 7.065-4.77 7.065-14.218 0-5.298-2.473-9.007-2.385-3.71-8.125-5.74 3.71-1.943 5.652-4.946 1.943-3.09 1.943-6.976 0-6.447-3.444-10.067-3.444-3.71-9.36-5.299-5.918-1.59-13.424-1.59M0 1.15a821 821 0 0 0 2.561 12.805q1.413 6.358 2.826 12.628 1.5 6.27 3.09 12.363 1.68 6.094 3.357 12.01a435 435 0 0 0 3.62 11.392h11.304a479 479 0 0 0 4.327-12.098 547 547 0 0 0 4.15-12.805 703 703 0 0 0 4.15-13.247q2.12 6.712 4.151 13.247 2.12 6.535 4.24 12.805a913 913 0 0 0 4.415 12.098h11.304a327 327 0 0 0 3.532-11.48 317 317 0 0 0 3.356-11.922 271 271 0 0 0 3.09-12.363q1.502-6.27 2.826-12.628A818 818 0 0 0 79.037 1.15H66.585a716 716 0 0 1-2.914 15.807q-1.5 8.124-3.18 15.807-1.589 7.595-3.266 13.777a592 592 0 0 1-4.24-12.452 602 602 0 0 1-4.238-13.6A3336 3336 0 0 0 44.95 7.862H34.706l-2.65 9.273a585 585 0 0 1-3.002 9.979 667 667 0 0 1-3.267 10.067 287 287 0 0 1-3.18 9.361q-1.765-6.27-3.532-13.865a741 741 0 0 1-3.268-15.807 502 502 0 0 1-2.825-15.72Zm107.914 9.096q6.093 0 9.36 1.766 3.357 1.677 3.357 5.916 0 2.826-1.414 4.593-1.324 1.766-4.15 2.56-2.826.708-7.153.707h-7.771V10.6q1.5-.177 3.62-.265a100 100 0 0 1 4.151-.088m-7.771 24.815h9.537q6.446 0 9.98 1.942 3.532 1.944 3.532 6.889 0 3.62-2.032 5.651-2.031 1.942-5.475 2.826-3.444.795-7.947.795a98 98 0 0 1-4.24-.088 102 102 0 0 1-3.355-.354z" fill="currentColor"/></svg>
